# xmcd
#
# Track frame offsets:
#	150
#	17161
#	31587
#	52046
#	67409
#	93207
#	111860
#	128151
#	140063
#	154605
#	176543
#	189912
#
# Disc length: 2963 seconds
#
# Revision: 0
# Processed by: cddbd v1.5.2PL0 Copyright (c) Steve Scherf et al.
# Submitted via: EasyCDDAExtractor 12.0.4.1
#
DISCID=a00b910c
DTITLE=Sarah and the Tall Boys - Shiny and New
DYEAR=2009
DGENRE=Country
TTITLE0=Friday Night Man
TTITLE1=Heart That You Stole
TTITLE2=Who But A Fool
TTITLE3=Trainwreck
TTITLE4=Before
TTITLE5=Shadow of a Doubt
TTITLE6=Shiny and New
TTITLE7=Crush
TTITLE8=You Done Me Wrong
TTITLE9=North
TTITLE10=No Glory, No Fame
TTITLE11=Red Moon Rising
EXTD=
EXTT0=
EXTT1=
EXTT2=
EXTT3=
EXTT4=
EXTT5=
EXTT6=
EXTT7=
EXTT8=
EXTT9=
EXTT10=
EXTT11=
PLAYORDER=
